<svg width="24" height="24" viewBox="0 0 24 24" xmlns="http://www.w3.org/2000/svg"><path d="m5 14c2.7601 0.0033061 4.9967 2.2399 5 5 0 2.7614-2.2386 5-5 5s-5-2.2386-5-5 2.2386-5 5-5zm2.5 5.9375c0.51777 0 0.9375-0.41973 0.9375-0.9375s-0.41973-0.9375-0.9375-0.9375h-1.25c-0.17259 0-0.3125-0.13991-0.3125-0.3125v-1.25c0-0.51777-0.41973-0.9375-0.9375-0.9375s-0.9375 0.41973-0.9375 0.9375v1.25c0 0.17259-0.13991 0.3125-0.3125 0.3125h-1.25c-0.51777 0-0.9375 0.41973-0.9375 0.9375s0.41973 0.9375 0.9375 0.9375h1.25c0.17259 0 0.3125 0.13991 0.3125 0.3125v1.25c0 0.51777 0.41973 0.9375 0.9375 0.9375s0.9375-0.41973 0.9375-0.9375v-1.25c0-0.17259 0.13991-0.3125 0.3125-0.3125h1.25zm8.5-0.9375c0 1.6569 1.3431 3 3 3s3-1.3431 3-3v-14c0-1.6569-1.3431-3-3-3s-3 1.3431-3 3v14zm-2 0v-14c0-2.7614 2.2386-5 5-5s5 2.2386 5 5v14c0 2.7614-2.2386 5-5 5s-5-2.2386-5-5z"/></svg>
