<svg width="24" height="24" viewBox="0 0 24 24" xmlns="http://www.w3.org/2000/svg"><path d="m2 19c0 1.6569 1.3431 3 3 3h14c1.6569 0 3-1.3431 3-3v-14c0-1.6569-1.3431-3-3-3h-14c-1.6569 0-3 1.3431-3 3v14zm-2 0 8.5725e-16 -14c-3.3818e-16 -2.7614 2.2386-5 5-5h14c2.7614 0 5 2.2386 5 5v14c0 2.7614-2.2386 5-5 5h-14c-2.7614 0-5-2.2386-5-5zm12-9c0.55228 0 1 0.44772 1 1v2c0 0.55228-0.44772 1-1 1s-1-0.44772-1-1v-2c0-0.55228 0.44772-1 1-1zm0 6c0.55228 0 1 0.44772 1 1v3c0 0.55228-0.44772 1-1 1s-1-0.44772-1-1v-3c0-0.55228 0.44772-1 1-1zm0-13c0.55228 0 1 0.44772 1 1v3c0 0.55228-0.44772 1-1 1s-1-0.44772-1-1v-3c0-0.55228 0.44772-1 1-1z"/></svg>
