<svg width="24" height="24" viewBox="0 0 24 24" xmlns="http://www.w3.org/2000/svg"><path d="m19 14c2.7601 0.0033061 4.9967 2.2399 5 5 0 2.7614-2.2386 5-5 5s-5-2.2386-5-5 2.2386-5 5-5zm-2.5 5.9375h5c0.51777 0 0.9375-0.41973 0.9375-0.9375s-0.41973-0.9375-0.9375-0.9375h-5c-0.51777 0-0.9375 0.41973-0.9375 0.9375s0.41973 0.9375 0.9375 0.9375zm-4.2101-2.9375h-3.2899v5h3.6736c0.3561 0.7496 0.8415 1.4259 1.4274 2h-9.101c-2.7614 0-5-2.2386-5-5l-1.7764e-15 -14c-3.3818e-16 -2.7614 2.2386-5 5-5h14c2.7614-5.0727e-16 5 2.2386 5 5v2.8231c0.012295 0.057408 0.018711 0.11651 0.018711 0.17687s-0.006416 0.11946-0.018711 0.17687v5.9242c-0.57412-0.58588-1.2504-1.0713-2-1.4274v-3.6736h-5v3.2899c-0.72243 0.21501-1.396 0.5435-2 0.96481v-4.2547h-6v6h4.2547c-0.42131 0.60401-0.7498 1.2776-0.96481 2zm4.7101-10h5v-2c0-1.6569-1.3431-3-3-3h-2v5zm-2 0v-5h-6v5h6zm-8-5h-2c-1.6569 0-3 1.3431-3 3v2h5v-5zm-5 7v6h5v-6h-5zm0 8v2c0 1.6569 1.3431 3 3 3h2v-5h-5z"/></svg>
