<svg width="24" height="24" viewBox="0 0 24 24" xmlns="http://www.w3.org/2000/svg"><path d="m12.641 21.931c0.29444 0.63765 0.68198 1.2235 1.1452 1.7401-0.55482 0.21233-1.1571 0.32865-1.7866 0.32865-2.7614 0-5-2.2386-5-5v-14c0-2.7614 2.2386-5 5-5s5 2.2386 5 5v7.2899c-0.72243 0.21501-1.396 0.5435-2 0.96481v-8.2547c0-1.6569-1.3431-3-3-3s-3 1.3431-3 3v14c0 1.6569 1.3431 3 3 3 0.22016 0 0.43478-0.023715 0.64144-0.068729zm6.3586-7.9313c2.7601 0.0033061 4.9967 2.2399 5 5 0 2.7614-2.2386 5-5 5s-5-2.2386-5-5 2.2386-5 5-5zm-2.5 5.9375h5c0.51777 0 0.9375-0.41973 0.9375-0.9375s-0.41973-0.9375-0.9375-0.9375h-5c-0.51777 0-0.9375 0.41973-0.9375 0.9375s0.41973 0.9375 0.9375 0.9375z"/></svg>
