<svg width="24" height="24" viewBox="0 0 24 24" xmlns="http://www.w3.org/2000/svg"><path d="m13.255 15c-0.42131 0.60401-0.7498 1.2776-0.96481 2h-7.2899c-2.7614 0-5-2.2386-5-5-1.2264e-15 -2.7614 2.2386-5 5-5h14c2.7614 0 5 2.2386 5 5 0 0.62948-0.11632 1.2318-0.32865 1.7866-0.5166-0.4632-1.1024-0.85073-1.7401-1.1452 0.045014-0.20666 0.068729-0.42128 0.068729-0.64144 0-1.6569-1.3431-3-3-3h-14c-1.6569 0-3 1.3431-3 3s1.3431 3 3 3h8.2547zm5.7453-1c2.7601 0.0033061 4.9967 2.2399 5 5 0 2.7614-2.2386 5-5 5s-5-2.2386-5-5 2.2386-5 5-5zm-2.5 5.9375h5c0.51777 0 0.9375-0.41973 0.9375-0.9375s-0.41973-0.9375-0.9375-0.9375h-5c-0.51777 0-0.9375 0.41973-0.9375 0.9375s0.41973 0.9375 0.9375 0.9375z"/></svg>
