<svg width="24" height="24" viewBox="0 0 24 24" xmlns="http://www.w3.org/2000/svg"><path d="m11.999 0.5c-6.35 0-11.499 5.148-11.499 11.5 0 5.082 3.294 9.392 7.865 10.914 0.574 0.103 0.756-0.236 0.756-0.541 0-0.274 6e-3 -1.037 0-1.997-3.198 0.694-3.861-1.515-3.861-1.515-0.523-1.329-1.275-1.682-1.275-1.682-1.045-0.714 0.077-0.699 0.077-0.699 1.153 0.08 1.762 1.184 1.762 1.184 1.026 1.758 2.691 1.25 3.346 0.956 0.106-0.742 0.402-1.251 0.731-1.536-2.554-0.292-5.238-1.277-5.238-5.686 0-1.255 0.448-2.281 1.184-3.086-0.118-0.289-0.514-1.46 0.112-3.043 0 0 0.967-0.309 3.162 1.18 0.918-0.256 1.902-0.383 2.88-0.388 0.976 5e-3 1.96 0.132 2.88 0.388 2.195-1.488 3.159-1.18 3.159-1.18 0.627 1.583 0.232 2.754 0.114 3.043 0.736 0.805 1.183 1.831 1.183 3.086 0 4.42-2.689 5.391-5.251 5.674 0.412 0.357 0.787 1.047 0.787 2.12v3.184c0 0.308 0.186 0.647 0.77 0.536 4.566-1.523 7.857-5.832 7.857-10.912 0-6.352-5.148-11.5-11.501-11.5z"/></svg>
