<svg version="1.1" viewBox="0 0 24 24" xmlns="http://www.w3.org/2000/svg"><title>text-italic</title><g stroke-width="1.3182" style="font-feature-settings:normal;font-variant-caps:normal;font-variant-ligatures:normal;font-variant-numeric:normal" aria-label="H2"><path d="m11.283 19h-1.6049v-6.495h-7.2691v6.495h-1.6049v-13.802h1.6049v5.8719h7.2691v-5.8719h1.6049z"/><path d="m23.196 19h-9.0723v-1.35l3.6346-3.6534q1.6615-1.6804 2.1902-2.3979 0.52866-0.71747 0.793-1.3972 0.26433-0.67971 0.26433-1.4633 0-1.1045-0.67027-1.7465-0.67027-0.65139-1.8598-0.65139-0.85908 0-1.6332 0.28321-0.76468 0.28321-1.7087 1.029l-0.83076-1.0668q1.907-1.586 4.1538-1.586 1.9447 0 3.0493 1.0007 1.1045 0.99125 1.1045 2.6716 0 1.3122-0.73635 2.5961-0.73635 1.2839-2.7566 3.2475l-3.0209 2.9549v0.07552h7.0992z"/></g></svg>
