<svg version="1.1" viewBox="0 0 24 24" xmlns="http://www.w3.org/2000/svg"><title>text-italic</title><g stroke-width="1.3007" style="font-feature-settings:normal;font-variant-caps:normal;font-variant-ligatures:normal;font-variant-numeric:normal" aria-label="H3"><path d="m11.339 18.814h-1.5835v-6.4087h-7.1725v6.4087h-1.5835v-13.618h1.5835v5.7939h7.1725v-5.7939h1.5835z"/><path d="m22.582 8.3996q0 1.3041-0.73588 2.1331-0.72656 0.82903-2.0679 1.1085v0.07452q1.6394 0.20493 2.4312 1.0433 0.79177 0.83834 0.79177 2.1983 0 1.9468-1.3507 2.9994-1.3507 1.0433-3.8378 1.0433-1.0805 0-1.9841-0.16767-0.89423-0.15835-1.7419-0.56821v-1.4718q0.88492 0.4378 1.8816 0.67068 1.006 0.22356 1.9002 0.22356 3.5304 0 3.5304-2.7665 0-2.4778-3.8936-2.4778h-1.3414v-1.332h1.36q1.5929 0 2.5243-0.69862 0.93149-0.70794 0.93149-1.9561 0-0.9967-0.68931-1.5649-0.67999-0.56821-1.8537-0.56821-0.89423 0-1.686 0.24219t-1.8071 0.89423l-0.78246-1.0433q0.83834-0.66136 1.9282-1.034 1.0992-0.38191 2.3101-0.38191 1.9841 0 3.0832 0.91286 1.0992 0.90355 1.0992 2.4871z"/></g></svg>
