<svg version="1.1" viewBox="0 0 24 24" xmlns="http://www.w3.org/2000/svg"><title>text-italic</title><g stroke-width="1.3191" style="font-feature-settings:normal;font-variant-caps:normal;font-variant-ligatures:normal;font-variant-numeric:normal" aria-label="H5"><path d="m11.32 18.811h-1.606v-6.4994h-7.274v6.4994h-1.606v-13.811h1.606v5.8759h7.274v-5.8759h1.606z"/><path d="m18.481 10.375q2.1822 0 3.4292 1.0864 1.2564 1.0769 1.2564 2.9568 0 2.1444-1.3698 3.3631-1.3603 1.2186-3.7598 1.2186-2.3334 0-3.5614-0.7463v-1.5115q0.66127 0.4251 1.6437 0.67072 0.98246 0.23617 1.9366 0.23617 1.6626 0 2.579-0.78408 0.92578-0.78408 0.92578-2.2672 0-2.8907-3.5425-2.8907-0.89744 0-2.3995 0.27396l-0.81242-0.51957 0.51957-6.4616h6.8678v1.4454h-5.5264l-0.34953 4.1471q1.0864-0.21728 2.1633-0.21728z"/></g></svg>
