<svg version="1.1" viewBox="0 0 24 24" xmlns="http://www.w3.org/2000/svg"><title>text-italic</title><g stroke-width="1.3007" style="font-feature-settings:normal;font-variant-caps:normal;font-variant-ligatures:normal;font-variant-numeric:normal" aria-label="H6"><path d="m11.246 18.814h-1.5835v-6.4087h-7.1725v6.4087h-1.5835v-13.618h1.5835v5.7939h7.1725v-5.7939h1.5835z"/><path d="m14.208 12.992q0-4.0147 1.5556-5.9988 1.5649-1.9934 4.6202-1.9934 1.0526 0 1.6581 0.17698v1.332q-0.71725-0.23287-1.6394-0.23287-2.189 0-3.3441 1.3693-1.1551 1.36-1.2668 4.2849h0.11178q1.0246-1.6022 3.2416-1.6022 1.835 0 2.8876 1.1085 1.0619 1.1085 1.0619 3.0087 0 2.1238-1.1644 3.3441-1.1551 1.2109-3.1298 1.2109-2.1145 0-3.3534-1.5835-1.2389-1.5929-1.2389-4.4246zm4.5736 4.6947q1.3227 0 2.0493-0.82903 0.73588-0.83834 0.73588-2.4126 0-1.3507-0.67999-2.1238-0.67999-0.77314-2.0307-0.77314-0.83834 0-1.537 0.34465-0.69862 0.34465-1.1178 0.95012-0.40986 0.60547-0.40986 1.2575 0 0.95944 0.3726 1.7885 0.3726 0.82903 1.0526 1.3134 0.68931 0.48438 1.5649 0.48438z"/></g></svg>
