<svg viewBox="0 0 24 24" xmlns="http://www.w3.org/2000/svg"><title>delete-2-alternate</title><path d="M20.485,3.511A12.01,12.01,0,1,0,24,12,12.009,12.009,0,0,0,20.485,3.511Zm-1.767,15.21A9.51,9.51,0,1,1,21.5,12,9.508,9.508,0,0,1,18.718,18.721Z"/><path d="m16.987 7.01a1.275 1.275 0 0 0-1.8 0l-3.177 3.177-3.181-3.177a1.277 1.277 0 0 0-1.805 1.806l3.176 3.177-3.176 3.178a1.277 1.277 0 0 0 1.805 1.806l3.176-3.177 3.177 3.178a1.277 1.277 0 0 0 1.8-1.806l-3.176-3.178 3.176-3.177a1.278 1.278 0 0 0 5e-3 -1.807z"/></svg>
