<svg width="24" height="24" viewBox="0 0 24 24" xmlns="http://www.w3.org/2000/svg"><path d="m17 17v5h2c1.6569 0 3-1.3431 3-3v-2h-5zm-2 0h-6v5h6v-5zm2-2h5v-6h-5v6zm-2 0v-6h-6v6h6zm2-8h5v-2c0-1.6569-1.3431-3-3-3h-2v5zm-2 0v-5h-6v5h6zm9 9.1769v2.8231c0 2.7614-2.2386 5-5 5h-14c-2.7614 0-5-2.2386-5-5l-1.7764e-15 -14c-3.3818e-16 -2.7614 2.2386-5 5-5h14c2.7614-5.0727e-16 5 2.2386 5 5v2.8231c0.012295 0.057408 0.018711 0.11651 0.018711 0.17687s-0.006416 0.11946-0.018711 0.17687v7.6463c0.012295 0.057408 0.018711 0.11651 0.018711 0.17687s-0.006416 0.11946-0.018711 0.17687zm-17-14.177h-2c-1.6569 0-3 1.3431-3 3v2h5v-5zm-5 7v6h5v-6h-5zm0 8v2c0 1.6569 1.3431 3 3 3h2v-5h-5z" fill-rule="evenodd"/></svg>
